<?xml version="1.0" encoding="UTF-8" standalone="no"?>
<!-- Created with Inkscape (http://www.inkscape.org/) -->
<svg
   xmlns:dc="http://purl.org/dc/elements/1.1/"
   xmlns:cc="http://creativecommons.org/ns#"
   xmlns:rdf="http://www.w3.org/1999/02/22-rdf-syntax-ns#"
   xmlns:svg="http://www.w3.org/2000/svg"
   xmlns="http://www.w3.org/2000/svg"
   xmlns:sodipodi="http://sodipodi.sourceforge.net/DTD/sodipodi-0.dtd"
   xmlns:inkscape="http://www.inkscape.org/namespaces/inkscape"
   id="svg2"
   sodipodi:version="0.32"
   inkscape:version="0.46"
   width="360"
   height="504"
   version="1.0"
   sodipodi:docname="Poker-sm-21A-5s.svg"
   inkscape:output_extension="org.inkscape.output.svg.inkscape">
  <metadata
     id="metadata7">
    <rdf:RDF>
      <cc:Work
         rdf:about="">
        <dc:format>image/svg+xml</dc:format>
        <dc:type
           rdf:resource="http://purl.org/dc/dcmitype/StillImage" />
      </cc:Work>
    </rdf:RDF>
  </metadata>
  <defs
     id="defs5">
    <inkscape:perspective
       sodipodi:type="inkscape:persp3d"
       inkscape:vp_x="0 : 526.18109 : 1"
       inkscape:vp_y="0 : 1000 : 0"
       inkscape:vp_z="744.09448 : 526.18109 : 1"
       inkscape:persp3d-origin="372.04724 : 350.78739 : 1"
       id="perspective9" />
  </defs>
  <sodipodi:namedview
     inkscape:window-height="750"
     inkscape:window-width="1268"
     inkscape:pageshadow="2"
     inkscape:pageopacity="0.0"
     guidetolerance="10.0"
     gridtolerance="10.0"
     objecttolerance="10.0"
     borderopacity="1.0"
     bordercolor="#666666"
     pagecolor="#ffffff"
     id="base"
     showgrid="false"
     inkscape:zoom="0.91666667"
     inkscape:cx="418.80817"
     inkscape:cy="262.40155"
     inkscape:window-x="0"
     inkscape:window-y="14"
     inkscape:current-layer="svg2" />
  <rect
     style="fill:#ffffff;fill-opacity:1;stroke:none;stroke-width:40;stroke-miterlimit:4;stroke-dasharray:none;stroke-dashoffset:0;stroke-opacity:1"
     id="rect2389"
     width="360"
     height="504"
     x="0"
     y="0" />
  <path
     style="fill:#000000"
     d="M 25.792241,126.33575 C 25.792241,126.17076 26.33329,124.50226 26.994571,122.628 C 27.655854,120.75372 28.164371,117.91295 28.124613,116.31517 L 28.052321,113.41013 L 27.30945,115.97927 C 25.157423,123.42175 15.896756,122.06645 14.835427,114.15365 C 14.275162,109.97656 16.446566,105.61434 24.060388,95.621296 L 29.674638,88.252679 L 34.346257,94.296265 C 43.19032,105.73766 45.029529,108.92277 45.029529,112.79738 C 45.029529,119.6921 37.656129,123.73133 33.865954,118.9129 C 32.952251,117.75132 32.20467,116.12817 32.20467,115.30592 C 32.20467,114.48367 31.815311,113.8109 31.33943,113.8109 C 30.301581,113.8109 30.961961,117.3472 33.023389,122.82838 L 34.455313,126.63576 L 30.123781,126.63576 C 27.741434,126.63576 25.792241,126.50076 25.792241,126.33575 z"
     id="path2383"
     sodipodi:nodetypes="cscccscccsssscccc" />
  <path
     style="fill:#000000"
     d="M 83,442.73526 C 58.233144,410.28966 56,406.40612 56,395.78086 C 56,383.30344 62.128686,376 72.599116,376 C 79.79364,376 84.433068,379.68282 87.767928,388.04112 C 89.739582,392.98278 89.746742,392.97916 89.829304,387 C 89.87487,383.7 88.131918,377.07672 85.956076,372.2816 C 83.780234,367.48646 82,363.21146 82,362.7816 C 82,362.35172 86.910076,362 92.911282,362 L 103.82256,362 L 101.2031,369.5 C 97.09798,381.25368 95.524852,392 97.909374,392 C 99.059218,392 100,390.2 100,388 C 100,381.82646 107.1138,376 114.65137,376 C 127.47016,376 134.70652,390.08712 129.56045,405.02372 C 127.11736,412.11482 96.524906,455.8256 94,455.8328 C 93.45,455.83438 88.5,449.94048 83,442.73526 z M 252,436.95532 C 227.97018,406.58104 224.0058,396.37882 231.38114,383.89336 C 238.87828,371.20172 253.61372,372.03824 259.45828,385.48728 C 264.43364,396.93618 264.93724,388.5667 260.10096,374.80658 C 257.84542,368.38922 256,362.88244 256,362.56932 C 256,362.2562 260.97312,362 267.05136,362 L 278.10272,362 L 275.01782,367.96554 C 273.32114,371.24658 271.47486,378.22158 270.91498,383.46554 C 270.0576,391.49616 270.23722,392.21786 272.05382,388.04112 C 275.84962,379.31384 280.22752,376 287.96134,376 C 302.73472,376 309.40462,393.71212 300.86916,410.27702 C 298.21712,415.42388 268.18824,456.16592 267.20016,455.95784 C 267.09008,455.93466 260.25,447.38354 252,436.95532 z M 170.03011,300.5 C 170.04667,299.675 171.35717,295.4 172.94233,291 C 174.52748,286.6 175.78276,279.85 175.73184,276 L 175.63925,269 L 173.78566,275.41038 C 169.92874,288.74906 155.85117,292.15428 147.17779,281.84654 C 140.4719,273.87706 140.26544,262.10822 146.63664,251 C 151.83418,241.93808 178.17414,207.948 179.88244,208.09838 C 181.65119,208.25408 211.19348,248.30736 214.77142,255.40068 C 219.92366,265.61504 218.97264,275.33506 212.15384,282.15384 C 204.89716,289.41054 196.46462,289.88128 190.34863,283.3711 C 187.95688,280.8252 186,277.27832 186,275.48914 C 186,273.69994 185.1,271.67984 184,271 C 180.9317,269.10368 181.72504,275.84712 186,288 C 188.12818,294.05 189.8988,299.675 189.93471,300.5 C 189.97062,301.325 185.5,302 180,302 C 174.5,302 170.01355,301.325 170.03011,300.5 z M 82,145.25145 C 82,144.83975 83.35,140.6766 85,136 C 86.65,131.3234 87.91883,124.23525 87.819624,120.24855 L 87.639246,113 L 85.785662,119.41038 C 80.416024,137.98058 57.309232,134.59884 54.661056,114.85521 C 53.263106,104.43271 58.681096,93.54831 77.678758,68.61414 L 91.687176,50.22829 L 103.34359,65.30797 C 125.41089,93.85603 130,101.80337 130,111.4711 C 130,128.67449 111.60223,138.753 102.14516,126.73028 C 99.865322,123.83194 98,119.78194 98,117.73028 C 98,115.67863 97.02849,114 95.84109,114 C 93.251494,114 94.89925,122.8236 100.04283,136.5 L 103.6157,146 L 92.807852,146 C 86.863534,146 82,145.66315 82,145.25145 z"
     id="path2384"
     sodipodi:nodetypes="csssssscccsssssccsssscccsssssccscccsssssssssssccscccscccsssscccc" />
  <text
     xml:space="preserve"
     style="font-size:80px;font-style:normal;font-weight:normal;fill:#000000;fill-opacity:1;stroke:none;stroke-width:1px;stroke-linecap:butt;stroke-linejoin:miter;stroke-opacity:1;font-family:Bitstream Vera Sans"
     x="9.873003"
     y="77.388367"
     id="text2386"><tspan
       sodipodi:role="line"
       id="tspan2388"
       x="9.873003"
       y="77.388367"
       style="font-size:72px">5</tspan></text>
  <text
     xml:space="preserve"
     style="font-size:80px;font-style:normal;font-weight:normal;fill:#000000;fill-opacity:1;stroke:none;stroke-width:1px;stroke-linecap:butt;stroke-linejoin:miter;stroke-opacity:1;font-family:Bitstream Vera Sans"
     x="-350.6145"
     y="-430.42398"
     id="text2390"
     transform="scale(-1,-1)"><tspan
       sodipodi:role="line"
       id="tspan2392"
       x="-350.6145"
       y="-430.42398"
       style="font-size:72px">5</tspan></text>
  <path
     style="fill:#000000"
     d="M 334.64396,379.83574 C 334.64396,380.00073 334.10291,381.66923 333.44163,383.54349 C 332.78035,385.41777 332.27183,388.25854 332.31159,389.85632 L 332.38388,392.76136 L 333.12675,390.19222 C 335.27878,382.74974 344.53944,384.10504 345.60077,392.01784 C 346.16104,396.19493 343.98963,400.55715 336.37581,410.5502 L 330.76156,417.91881 L 326.08994,411.87523 C 317.24588,400.43383 315.40667,397.24872 315.40667,393.37411 C 315.40667,386.47939 322.78007,382.44016 326.57025,387.25859 C 327.48395,388.42017 328.23153,390.04332 328.23153,390.86557 C 328.23153,391.68782 328.62089,392.36059 329.09677,392.36059 C 330.13462,392.36059 329.47424,388.82429 327.41281,383.34311 L 325.98089,379.53573 L 330.31242,379.53573 C 332.69477,379.53573 334.64396,379.67073 334.64396,379.83574 z"
     id="path2385"
     sodipodi:nodetypes="cscccscccsssscccc" />
  <path
     style="fill:#000000"
     d="M 256.45483,145.3733 C 256.45483,144.9616 257.80483,140.79845 259.45483,136.12185 C 261.10483,131.44525 262.37366,124.3571 262.27446,120.3704 L 262.09408,113.12185 L 260.2405,119.53223 C 254.87086,138.10243 231.76407,134.72069 229.11589,114.97706 C 227.71794,104.55456 233.13593,93.670159 252.13359,68.735993 L 266.14201,50.350143 L 277.79842,65.429823 C 299.86572,93.977879 304.45483,101.92522 304.45483,111.59295 C 304.45483,128.79634 286.05706,138.87485 276.59999,126.85213 C 274.32016,123.95379 272.45483,119.90379 272.45483,117.85213 C 272.45483,115.80048 271.48332,114.12185 270.29592,114.12185 C 267.70633,114.12185 269.35408,122.94545 274.49766,136.62185 L 278.07053,146.12185 L 267.26269,146.12185 C 261.31837,146.12185 256.45483,145.785 256.45483,145.3733 z"
     id="path2387"
     sodipodi:nodetypes="cscccscccsssscccc" />
</svg>
